<?xml version="1.0" encoding="utf-8"?>
<!-- Generator: Adobe Illustrator 27.1.1, SVG Export Plug-In . SVG Version: 6.00 Build 0)  -->
<svg version="1.1" id="Layer_1" xmlns="http://www.w3.org/2000/svg" xmlns:xlink="http://www.w3.org/1999/xlink" x="0px" y="0px"
	 viewBox="0 0 215 215" style="enable-background:new 0 0 215 215;" xml:space="preserve">
<style type="text/css">
	.st0{fill:#527FAF;}
	.st1{filter:url(#Adobe_OpacityMaskFilter);}
	.st2{fill-rule:evenodd;clip-rule:evenodd;fill:#FFFFFF;}
	.st3{mask:url(#mask-2_00000018203999756166376160000006669070237632961976_);fill-rule:evenodd;clip-rule:evenodd;fill:#FFFFFE;}
</style>
<g id="Page-1">
	<g id="portal-logo">
		<circle id="Oval" class="st0" cx="107.5" cy="107.5" r="107.5"/>
		<g id="logo" transform="translate(58.000000, 79.000000)">
			<g id="Clip-2">
			</g>
			<defs>
				<filter id="Adobe_OpacityMaskFilter" filterUnits="userSpaceOnUse" x="-5" y="-5" width="110" height="66.7">
					<feColorMatrix  type="matrix" values="1 0 0 0 0  0 1 0 0 0  0 0 1 0 0  0 0 0 1 0"/>
				</filter>
			</defs>
			
				<mask maskUnits="userSpaceOnUse" x="-5" y="-5" width="110" height="66.7" id="mask-2_00000018203999756166376160000006669070237632961976_">
				<g class="st1">
					<path id="path-1_00000131363191865879578870000013253091159103486094_" class="st2" d="M51.2,8.7c3.3,3.9,5.7,8.6,6.7,13.8
						c2.3-5.4,7.6-9.1,13.7-9.1c8.2,0,14.9,6.7,14.9,14.9c0,8.2-6.7,14.9-14.9,14.9c-8.2,0-14.9-6.7-14.9-14.9
						C56.7,12.7,44,0,28.4,0S0,12.7,0,28.4C0,44,12.7,56.7,28.4,56.7c8.1,0,15.3-3.3,20.5-8.7c-3.4-3.9-5.7-8.6-6.8-13.9
						c-2.3,5.4-7.6,9.1-13.7,9.1c-8.2,0-14.9-6.7-14.9-14.9c0-8.2,6.7-14.9,14.9-14.9c8.6,0,14.9,7.1,14.9,14.9
						C43.3,44,56,56.7,71.6,56.7C87.3,56.7,100,44,100,28.4C100,12.7,87.3,0,71.6,0C63.6,0,56.3,3.4,51.2,8.7z"/>
				</g>
			</mask>
			<polygon id="Fill-1" class="st3" points="-5,61.7 105,61.7 105,-5 -5,-5 			"/>
		</g>
	</g>
</g>
</svg>
