<?xml version="1.0" encoding="UTF-8"?><svg id="a" xmlns="http://www.w3.org/2000/svg" viewBox="0 0 334.74 210.58"><path d="m122.48,121.38c.21,6.23,1.13,12.78,3.38,18.42,2.26,5.64,5.44,10.55,9.56,14.73,4.11,4.18,8.89,7.4,14.34,9.66,5.44,2.26,11.35,3.38,17.72,3.38s12.28-1.13,17.72-3.38c3.31-1.37,6.36-3.1,9.16-5.16v7.95c0,6.37-1.66,11.51-4.98,15.43-3.32,3.91-7.67,6.7-13.04,8.36-5.38,1.66-11.05,2.22-17.02,1.69-5.97-.53-11.68-2.12-17.12-4.78-3.06-1.46-5.74-1.73-8.06-.8-2.32.93-3.98,2.46-4.98,4.58-1,2.12-1.13,4.38-.4,6.77.73,2.39,2.55,4.31,5.48,5.77,6.77,3.19,13.77,5.21,21.01,6.07,7.23.86,14.24.6,21.01-.8,6.77-1.39,12.87-3.92,18.32-7.57,5.44-3.65,9.76-8.4,12.94-14.24,2.41-4.43,3.91-9.43,4.49-15,.32-1.11.49-2.34.49-3.71v-47.39c0-4.64.6-8.69,1.79-12.15,1.19-3.45,2.92-6.34,5.18-8.66,2.26-2.32,4.98-4.08,8.16-5.28,3.19-1.19,6.7-1.79,10.55-1.79s6.87.8,9.46,2.39c2.59,1.59,4.58,4.05,5.97,7.37,1.39,3.32,2.09,7.7,2.09,13.14v52.37c0,2.66.6,4.81,1.79,6.47s2.69,2.75,4.48,3.29c1.79.53,3.58.53,5.38,0,1.79-.53,3.29-1.63,4.48-3.29s1.79-3.81,1.79-6.47v-47.39c0-4.64.6-8.69,1.79-12.15,1.19-3.45,2.92-6.34,5.18-8.66,2.26-2.32,4.98-4.08,8.16-5.28,3.19-1.19,6.7-1.79,10.55-1.79s6.87.8,9.46,2.39c2.59,1.59,4.58,4.05,5.97,7.37,1.39,3.32,2.09,7.7,2.09,13.14v52.37c0,3.32.9,5.84,2.69,7.57,1.79,1.72,3.88,2.59,6.27,2.59s4.48-.87,6.27-2.59,2.69-4.25,2.69-7.57v-52.37c0-7.03-.93-13.11-2.79-18.22-1.86-5.11-4.45-9.36-7.77-12.74-3.32-3.39-7.1-5.87-11.35-7.47-4.25-1.59-8.76-2.39-13.54-2.39-6.11,0-11.82,1.23-17.12,3.68-5.31,2.46-9.96,5.91-13.94,10.35-.34.38-.67.77-.99,1.17-1.24-1.97-2.63-3.76-4.18-5.35-3.32-3.39-7.1-5.87-11.35-7.47-4.25-1.59-8.76-2.39-13.54-2.39-6.11,0-11.82,1.23-17.12,3.68-5.31,2.46-9.96,5.91-13.94,10.35-1.15,1.29-2.22,2.65-3.22,4.07-3.59-5.01-8.08-9.1-13.5-12.24-6.77-3.91-14.47-5.87-23.1-5.87s-15.93,1.99-22.7,5.97c-4.17,2.45-7.8,5.46-10.92,9.02-1.2-1.89-2.55-3.61-4.05-5.14-3.32-3.39-7.1-5.87-11.35-7.47-4.25-1.59-8.76-2.39-13.54-2.39-6.11,0-11.82,1.23-17.12,3.68-5.31,2.46-9.96,5.91-13.94,10.35-.34.38-.67.77-.99,1.17-1.24-1.97-2.63-3.76-4.18-5.35-3.32-3.39-7.1-5.87-11.35-7.47-4.25-1.59-8.76-2.39-13.54-2.39-6.11,0-11.82,1.23-17.12,3.68-3.09,1.43-5.95,3.21-8.59,5.32-.16-2.84-1.04-5.01-2.65-6.51-1.79-1.66-3.88-2.49-6.27-2.49s-4.48.83-6.27,2.49c-1.79,1.66-2.69,4.15-2.69,7.47v83.23c0,2.66.6,4.81,1.79,6.47s2.69,2.75,4.48,3.29c1.79.53,3.58.53,5.38,0,1.79-.53,3.29-1.63,4.48-3.29,1.19-1.66,1.79-3.81,1.79-6.47v-47.39c0-4.64.6-8.69,1.79-12.15,1.19-3.45,2.92-6.34,5.18-8.66,2.26-2.32,4.98-4.08,8.16-5.28,3.19-1.19,6.7-1.79,10.55-1.79s6.87.8,9.46,2.39c2.59,1.59,4.58,4.05,5.97,7.37,1.39,3.32,2.09,7.7,2.09,13.14v52.37c0,2.66.6,4.81,1.79,6.47,1.19,1.66,2.69,2.75,4.48,3.29,1.79.53,3.58.53,5.38,0,1.79-.53,3.29-1.63,4.48-3.29,1.19-1.66,1.79-3.81,1.79-6.47v-47.39c0-4.64.6-8.69,1.79-12.15,1.19-3.45,2.92-6.34,5.18-8.66,2.26-2.32,4.98-4.08,8.16-5.28,3.19-1.19,6.7-1.79,10.55-1.79s6.87.8,9.46,2.39c2.59,1.59,4.58,4.05,5.97,7.37,1.39,3.32,1.65,4.94,2.09,13.14s.02-1.25.23,4.98Zm66.41,20.51c-2.32,2.52-5.15,4.45-8.46,5.77-3.32,1.33-6.97,1.99-10.95,1.99s-7.63-.7-10.95-2.09c-3.32-1.39-6.17-3.32-8.56-5.77-2.39-2.46-4.25-5.44-5.57-8.96-1.33-3.52-1.99-7.33-1.99-11.45s.66-7.86,1.99-11.25c1.33-3.39,3.19-6.3,5.57-8.76,2.39-2.45,5.21-4.38,8.46-5.77,3.25-1.39,6.87-2.09,10.85-2.09,5.31,0,9.99,1.16,14.04,3.48,4.05,2.32,7.23,5.54,9.56,9.66,2.32,4.12,3.48,8.9,3.48,14.34v.8c0,4.12-.67,7.86-1.99,11.25-1.33,3.38-3.15,6.34-5.48,8.86Z"/><g><path d="m25.12,44.67c-.61-.63-1.31-1.09-2.1-1.38-.79-.29-1.62-.44-2.51-.44-1.13,0-2.19.23-3.17.68-.98.46-1.84,1.09-2.58,1.92-.06.07-.12.15-.18.22-.23-.37-.49-.7-.78-1-.61-.63-1.31-1.09-2.1-1.38-.79-.29-1.62-.44-2.51-.44-1.13,0-2.19.23-3.17.68-.58.27-1.1.6-1.6,1-.03-.53-.18-.94-.48-1.22-.33-.31-.72-.46-1.16-.46s-.83.15-1.16.46c-.33.31-.5.77-.5,1.38v15.4c0,.49.11.89.33,1.2s.5.51.83.61.66.1,1,0,.61-.3.83-.61c.22-.31.33-.71.33-1.2v-8.77c0-.86.11-1.61.33-2.25.22-.64.54-1.17.96-1.6.42-.43.92-.75,1.51-.98.59-.22,1.24-.33,1.95-.33s1.27.15,1.75.44.85.75,1.11,1.36c.26.61.39,1.43.39,2.43v9.69c0,.49.11.89.33,1.2s.5.51.83.61c.33.1.66.1.99,0,.33-.1.61-.3.83-.61s.33-.71.33-1.2v-8.77c0-.86.11-1.61.33-2.25.22-.64.54-1.17.96-1.6.42-.43.92-.75,1.51-.98.59-.22,1.24-.33,1.95-.33s1.27.15,1.75.44.85.75,1.11,1.36c.26.61.39,1.43.39,2.43v9.69c0,.61.17,1.08.5,1.4.33.32.72.48,1.16.48s.83-.16,1.16-.48c.33-.32.5-.79.5-1.4v-9.69c0-1.3-.17-2.43-.52-3.37-.34-.95-.82-1.73-1.44-2.36Z" style="fill:#3689b2;"/><path d="m46.14,45.92c-.75-.97-1.69-1.73-2.82-2.27-1.13-.54-2.37-.81-3.72-.81-1.7,0-3.22.4-4.57,1.2s-2.42,1.92-3.21,3.35c-.79,1.44-1.18,3.11-1.18,5.03s.42,3.7,1.25,5.12c.83,1.43,1.95,2.52,3.35,3.28,1.4.76,2.96,1.14,4.68,1.14.69,0,1.41-.07,2.16-.2.75-.14,1.5-.34,2.27-.63.76-.28,1.52-.65,2.29-1.09.54-.29.87-.66.98-1.11s.06-.85-.17-1.23-.55-.65-.98-.79c-.43-.15-.92-.06-1.46.26-.59.32-1.17.59-1.75.81-.58.22-1.15.39-1.71.5-.57.11-1.11.17-1.62.17-1.16,0-2.18-.24-3.08-.72-.9-.48-1.6-1.19-2.12-2.12-.37-.67-.6-1.45-.71-2.32.02.02.03.04.04.05.32.33.79.5,1.4.5h7.26c1.03,0,1.9-.1,2.6-.29.7-.2,1.25-.48,1.64-.87.39-.38.64-.87.74-1.46.1-.59.07-1.27-.07-2.03-.25-1.35-.74-2.51-1.49-3.48Zm-1.77,4.59c-.06.1-.16.17-.29.2-.14.04-.32.05-.55.04-.23-.01-.5-.02-.79-.02h-7.26c-.61,0-1.08.17-1.4.5,0,0-.02.02-.03.03.1-.78.31-1.49.63-2.13.48-.95,1.14-1.68,1.99-2.19s1.82-.77,2.93-.77c.83,0,1.58.15,2.25.46.66.31,1.21.75,1.64,1.33.43.58.73,1.26.9,2.05.05.25.04.42-.02.52Z" style="fill:#3689b2;"/><path d="m66.87,34.07c-.44,0-.83.15-1.16.46-.33.31-.5.77-.5,1.38v8.86c-.62-.51-1.3-.93-2.05-1.25-1.07-.45-2.23-.68-3.48-.68-1.67,0-3.18.41-4.51,1.22-1.34.81-2.4,1.94-3.17,3.37-.77,1.44-1.16,3.09-1.16,4.96,0,1.4.22,2.68.66,3.85s1.07,2.18,1.88,3.04c.81.86,1.76,1.52,2.84,1.99s2.25.7,3.5.7,2.41-.22,3.48-.65c.74-.3,1.4-.68,2.01-1.15v.33c0,.64.17,1.11.5,1.42.33.31.72.46,1.16.46s.83-.16,1.16-.48.5-.79.5-1.4v-24.58c0-.61-.17-1.07-.5-1.38-.33-.31-.72-.46-1.16-.46Zm-3.17,23.05c-.49.5-1.08.88-1.75,1.14-.68.26-1.42.39-2.23.39-1.11,0-2.08-.27-2.91-.81-.84-.54-1.49-1.28-1.95-2.23-.47-.95-.7-2.02-.7-3.22,0-.91.13-1.74.41-2.51.27-.76.65-1.42,1.12-1.97.48-.55,1.06-.98,1.75-1.29.69-.31,1.44-.46,2.25-.46,1.08,0,2.04.26,2.87.77.83.52,1.49,1.24,1.95,2.17.47.93.7,2,.7,3.21v.52c0,.91-.13,1.73-.39,2.45-.26.73-.63,1.34-1.12,1.84Z" style="fill:#3689b2;"/><path d="m75.17,42.85c-.44,0-.83.15-1.16.46-.33.31-.5.77-.5,1.38v15.4c0,.64.17,1.11.5,1.42.33.31.72.46,1.16.46s.83-.16,1.16-.48c.33-.32.5-.79.5-1.4v-15.4c0-.61-.17-1.07-.5-1.38-.33-.31-.72-.46-1.16-.46Z" style="fill:#3689b2;"/><path d="m75.17,34.63c-.44,0-.83.14-1.16.42-.33.28-.5.71-.5,1.27v1.81c0,.57.17.99.5,1.27.33.28.72.42,1.16.42s.83-.14,1.16-.42c.33-.28.5-.71.5-1.27v-1.81c0-.56-.17-.99-.5-1.27-.33-.28-.72-.42-1.16-.42Z" style="fill:#3689b2;"/><path d="m96.91,43.03c-.44,0-.83.16-1.16.48-.31.3-.47.73-.49,1.28-.62-.52-1.3-.94-2.05-1.26-1.07-.45-2.23-.68-3.48-.68-1.67,0-3.18.41-4.51,1.22-1.34.81-2.4,1.94-3.17,3.37-.77,1.44-1.16,3.09-1.16,4.96,0,1.4.22,2.68.66,3.85s1.07,2.18,1.88,3.04c.81.86,1.76,1.52,2.84,1.99s2.25.7,3.5.7,2.41-.2,3.48-.59c.74-.27,1.4-.63,2.01-1.07v.19c0,.61.17,1.08.5,1.4.33.32.72.48,1.16.48s.83-.16,1.16-.48.5-.79.5-1.4v-15.59c0-.61-.17-1.08-.5-1.4-.33-.32-.72-.48-1.16-.48Zm-3.17,14.28c-.49.46-1.08.79-1.75,1.01-.68.22-1.42.33-2.23.33s-1.56-.15-2.25-.46c-.69-.31-1.28-.74-1.77-1.31-.49-.56-.87-1.23-1.14-1.99-.27-.76-.41-1.6-.41-2.51s.13-1.74.41-2.51c.27-.76.65-1.42,1.12-1.97.48-.55,1.06-.98,1.75-1.29.69-.31,1.44-.46,2.25-.46,1.08,0,2.04.26,2.87.77.83.52,1.49,1.24,1.95,2.17.47.93.7,2,.7,3.21v.88c0,.91-.13,1.71-.39,2.4-.26.69-.63,1.26-1.12,1.71Z" style="fill:#3689b2;"/><path d="m105.9,56.41c-.44,0-.83.15-1.16.46-.33.31-.5.77-.5,1.38v1.99c0,.61.17,1.08.5,1.4.33.32.72.48,1.16.48s.83-.16,1.16-.48c.33-.32.5-.79.5-1.4v-1.99c0-.61-.17-1.07-.5-1.38-.33-.31-.72-.46-1.16-.46Z" style="fill:#3689b2;"/><path d="m105.9,43.18c-.44,0-.83.15-1.16.46-.33.31-.5.77-.5,1.38v1.99c0,.61.17,1.08.5,1.4.33.32.72.48,1.16.48s.83-.16,1.16-.48c.33-.32.5-.79.5-1.4v-1.99c0-.61-.17-1.07-.5-1.38-.33-.31-.72-.46-1.16-.46Z" style="fill:#3689b2;"/><path d="m126.94,42.81c-.44,0-.83.15-1.16.46-.28.26-.44.66-.48,1.17-.24-.18-.49-.35-.75-.5-1.25-.72-2.68-1.09-4.27-1.09s-2.95.37-4.2,1.11c-1.25.74-2.25,1.74-2.99,3.02-.74,1.28-1.11,2.73-1.11,4.35,0,1.23.21,2.37.63,3.41.42,1.04,1.01,1.95,1.77,2.73.76.77,1.65,1.37,2.65,1.79,1.01.42,2.1.63,3.28.63s2.27-.21,3.28-.63c.62-.26,1.18-.58,1.7-.97v1.48c0,1.18-.31,2.13-.92,2.86-.61.72-1.42,1.24-2.41,1.55-1,.31-2.05.41-3.15.31-1.11-.1-2.16-.39-3.17-.88-.57-.27-1.06-.32-1.49-.15-.43.17-.74.45-.92.85s-.21.81-.07,1.25c.13.44.47.8,1.01,1.07,1.25.59,2.55.96,3.89,1.12,1.34.16,2.63.11,3.89-.15,1.25-.26,2.38-.73,3.39-1.4s1.81-1.55,2.4-2.63c.59-1.08.88-2.35.88-3.8v-15.07c0-.61-.17-1.08-.5-1.4-.33-.32-.72-.48-1.16-.48Zm-3.04,12.31c-.43.47-.95.82-1.57,1.07-.61.25-1.29.37-2.03.37s-1.41-.13-2.03-.39c-.61-.26-1.14-.61-1.58-1.07-.44-.45-.79-1.01-1.03-1.66-.25-.65-.37-1.36-.37-2.12s.12-1.46.37-2.08.59-1.17,1.03-1.62c.44-.45.96-.81,1.57-1.07.6-.26,1.27-.39,2.01-.39.98,0,1.85.22,2.6.65.75.43,1.34,1.03,1.77,1.79.43.76.65,1.65.65,2.65v.15c0,.76-.12,1.46-.37,2.08s-.58,1.17-1.01,1.64Z" style="fill:#3689b2;"/><path d="m148.5,43.03c-.44,0-.83.16-1.16.48-.31.3-.47.73-.49,1.28-.62-.52-1.3-.94-2.05-1.26-1.07-.45-2.23-.68-3.48-.68-1.67,0-3.18.41-4.51,1.22-1.34.81-2.4,1.94-3.17,3.37-.77,1.44-1.16,3.09-1.16,4.96,0,1.4.22,2.68.66,3.85s1.07,2.18,1.88,3.04c.81.86,1.76,1.52,2.84,1.99s2.25.7,3.5.7,2.41-.2,3.48-.59c.74-.27,1.4-.63,2.01-1.07v.19c0,.61.17,1.08.5,1.4.33.32.72.48,1.16.48s.83-.16,1.16-.48.5-.79.5-1.4v-15.59c0-.61-.17-1.08-.5-1.4-.33-.32-.72-.48-1.16-.48Zm-3.17,14.28c-.49.46-1.08.79-1.75,1.01-.68.22-1.42.33-2.23.33s-1.56-.15-2.25-.46c-.69-.31-1.28-.74-1.77-1.31-.49-.56-.87-1.23-1.14-1.99-.27-.76-.41-1.6-.41-2.51s.13-1.74.41-2.51c.27-.76.65-1.42,1.12-1.97.48-.55,1.06-.98,1.75-1.29.69-.31,1.44-.46,2.25-.46,1.08,0,2.04.26,2.87.77.83.52,1.49,1.24,1.95,2.17.47.93.7,2,.7,3.21v.88c0,.91-.13,1.71-.39,2.4-.26.69-.63,1.26-1.12,1.71Z" style="fill:#3689b2;"/><path d="m178.98,44.67c-.61-.63-1.31-1.09-2.1-1.38-.79-.29-1.62-.44-2.51-.44-1.13,0-2.19.23-3.17.68-.98.46-1.84,1.09-2.58,1.92-.06.07-.12.15-.18.22-.23-.37-.49-.7-.78-1-.61-.63-1.31-1.09-2.1-1.38-.79-.29-1.62-.44-2.51-.44-1.13,0-2.19.23-3.17.68-.58.27-1.1.6-1.6,1-.03-.53-.19-.94-.49-1.22-.33-.31-.72-.46-1.16-.46s-.83.15-1.16.46c-.33.31-.5.77-.5,1.38v15.4c0,.49.11.89.33,1.2s.5.51.83.61.66.1,1,0,.61-.3.83-.61.33-.71.33-1.2v-8.77c0-.86.11-1.61.33-2.25.22-.64.54-1.17.96-1.6.42-.43.92-.75,1.51-.98.59-.22,1.24-.33,1.95-.33s1.27.15,1.75.44.85.75,1.11,1.36c.26.61.39,1.43.39,2.43v9.69c0,.49.11.89.33,1.2s.5.51.83.61c.33.1.66.1.99,0,.33-.1.61-.3.83-.61s.33-.71.33-1.2v-8.77c0-.86.11-1.61.33-2.25.22-.64.54-1.17.96-1.6.42-.43.92-.75,1.51-.98.59-.22,1.24-.33,1.95-.33s1.27.15,1.75.44.85.75,1.11,1.36c.26.61.39,1.43.39,2.43v9.69c0,.61.17,1.08.5,1.4.33.32.72.48,1.16.48s.83-.16,1.16-.48c.33-.32.5-.79.5-1.4v-9.69c0-1.3-.17-2.43-.52-3.37-.34-.95-.82-1.73-1.44-2.36Z" style="fill:#3689b2;"/><path d="m200.01,45.92c-.75-.97-1.69-1.73-2.82-2.27-1.13-.54-2.37-.81-3.72-.81-1.7,0-3.22.4-4.57,1.2s-2.42,1.92-3.21,3.35c-.79,1.44-1.18,3.11-1.18,5.03s.42,3.7,1.25,5.12c.83,1.43,1.95,2.52,3.35,3.28,1.4.76,2.96,1.14,4.68,1.14.69,0,1.41-.07,2.16-.2.75-.14,1.5-.34,2.27-.63.76-.28,1.52-.65,2.29-1.09.54-.29.87-.66.98-1.11s.06-.85-.17-1.23-.55-.65-.98-.79c-.43-.15-.92-.06-1.46.26-.59.32-1.17.59-1.75.81-.58.22-1.15.39-1.71.5-.57.11-1.11.17-1.62.17-1.16,0-2.18-.24-3.08-.72-.9-.48-1.6-1.19-2.12-2.12-.37-.67-.6-1.45-.71-2.32.02.02.03.04.04.05.32.33.79.5,1.4.5h7.26c1.03,0,1.9-.1,2.6-.29.7-.2,1.25-.48,1.64-.87.39-.38.64-.87.74-1.46.1-.59.07-1.27-.07-2.03-.25-1.35-.74-2.51-1.49-3.48Zm-1.77,4.59c-.06.1-.16.17-.29.2-.14.04-.32.05-.55.04-.23-.01-.5-.02-.79-.02h-7.26c-.61,0-1.08.17-1.4.5,0,0-.02.02-.03.03.1-.78.31-1.49.63-2.13.48-.95,1.14-1.68,1.99-2.19s1.82-.77,2.93-.77c.83,0,1.58.15,2.25.46.66.31,1.21.75,1.64,1.33.43.58.73,1.26.9,2.05.05.25.04.42-.02.52Z" style="fill:#3689b2;"/><path d="m220.22,48.56h-5.34v-5.56c0-.64-.17-1.11-.5-1.42-.33-.31-.72-.46-1.16-.46s-.83.15-1.16.46c-.33.31-.5.78-.5,1.42v5.56h-5.34c-.61,0-1.08.17-1.4.5-.32.33-.48.72-.48,1.16s.16.83.48,1.16c.32.33.79.5,1.4.5h5.34v5.49c0,.61.17,1.08.5,1.4.33.32.72.48,1.16.48s.83-.16,1.16-.48c.33-.32.5-.79.5-1.4v-5.49h5.34c.64,0,1.11-.17,1.42-.5.31-.33.46-.72.46-1.16s-.15-.83-.46-1.16c-.31-.33-.78-.5-1.42-.5Z" style="fill:#3689b2;"/><path d="m249.59,44.67c-.61-.63-1.31-1.09-2.1-1.38-.79-.29-1.62-.44-2.51-.44-1.13,0-2.19.23-3.17.68-.98.46-1.84,1.09-2.58,1.92-.06.07-.12.15-.18.22-.23-.37-.49-.7-.78-1-.61-.63-1.31-1.09-2.1-1.38-.79-.29-1.62-.44-2.51-.44-1.13,0-2.19.23-3.17.68-.58.27-1.1.6-1.6,1-.03-.53-.19-.94-.49-1.22-.33-.31-.72-.46-1.16-.46s-.83.15-1.16.46c-.33.31-.5.77-.5,1.38v15.4c0,.49.11.89.33,1.2s.5.51.83.61.66.1,1,0,.61-.3.83-.61.33-.71.33-1.2v-8.77c0-.86.11-1.61.33-2.25.22-.64.54-1.17.96-1.6.42-.43.92-.75,1.51-.98.59-.22,1.24-.33,1.95-.33s1.27.15,1.75.44.85.75,1.11,1.36c.26.61.39,1.43.39,2.43v9.69c0,.49.11.89.33,1.2s.5.51.83.61c.33.1.66.1.99,0,.33-.1.61-.3.83-.61s.33-.71.33-1.2v-8.77c0-.86.11-1.61.33-2.25.22-.64.54-1.17.96-1.6.42-.43.92-.75,1.51-.98.59-.22,1.24-.33,1.95-.33s1.27.15,1.75.44.85.75,1.11,1.36c.26.61.39,1.43.39,2.43v9.69c0,.61.17,1.08.5,1.4.33.32.72.48,1.16.48s.83-.16,1.16-.48c.33-.32.5-.79.5-1.4v-9.69c0-1.3-.17-2.43-.52-3.37-.34-.95-.82-1.73-1.44-2.36Z" style="fill:#3689b2;"/><path d="m269.03,44.08c-1.39-.82-2.97-1.23-4.74-1.23s-3.31.41-4.7,1.23c-1.39.82-2.48,1.95-3.28,3.39-.8,1.44-1.2,3.08-1.2,4.92,0,1.11.15,2.14.44,3.1.29.96.7,1.82,1.22,2.58.59.88,1.27,1.6,2.05,2.16s1.68,1.01,2.71,1.38c.59.2,1.09.18,1.49-.04.41-.22.68-.54.83-.96.15-.42.12-.83-.07-1.23-.2-.41-.59-.72-1.18-.94-.44-.15-.85-.32-1.22-.52-.37-.2-.71-.43-1.01-.7-.31-.27-.6-.6-.87-1-.34-.52-.61-1.1-.79-1.75-.18-.65-.28-1.35-.28-2.08,0-1.2.25-2.28.74-3.22.49-.95,1.18-1.68,2.06-2.21.88-.53,1.9-.79,3.06-.79s2.17.26,3.06.79c.88.53,1.58,1.27,2.08,2.21.5.95.76,2.02.76,3.22,0,.74-.09,1.43-.28,2.06-.18.64-.45,1.22-.79,1.73-.42.59-.86,1.05-1.33,1.38-.47.33-1.07.62-1.81.87-.59.22-.98.53-1.18.94-.2.41-.22.82-.07,1.23.15.42.42.74.83.96.41.22.89.23,1.46.04,1.11-.39,2.04-.86,2.8-1.4.76-.54,1.44-1.27,2.03-2.17.54-.79.95-1.65,1.23-2.6.28-.95.42-1.96.42-3.04,0-1.84-.4-3.48-1.2-4.92-.8-1.44-1.89-2.57-3.28-3.39Z" style="fill:#3689b2;"/><path d="m290.7,44.08c-1.34-.82-2.84-1.23-4.51-1.23s-3.21.41-4.53,1.22c-.34.21-.66.43-.96.68v-8.79c0-.61-.17-1.07-.5-1.38-.33-.31-.72-.46-1.16-.46s-.83.15-1.16.46c-.33.31-.5.77-.5,1.38v23.99c0,.61.17,1.08.5,1.4.33.32.72.48,1.16.48s.83-.16,1.16-.48c.3-.29.46-.71.49-1.25.6.45,1.23.86,1.96,1.17,1.08.47,2.27.7,3.57.7,1.23,0,2.38-.23,3.45-.7s2.01-1.12,2.82-1.97c.81-.85,1.44-1.85,1.9-3.02.45-1.17.68-2.45.68-3.85,0-1.87-.39-3.52-1.18-4.96-.79-1.44-1.85-2.57-3.19-3.39Zm.63,10.85c-.28.76-.67,1.42-1.16,1.97-.49.55-1.08.98-1.75,1.29-.68.31-1.41.46-2.19.46s-1.51-.14-2.17-.42c-.66-.28-1.25-.65-1.75-1.09-.5-.44-.9-.93-1.18-1.47-.28-.54-.42-1.07-.42-1.58v-1.73c0-1.2.23-2.27.68-3.21.45-.93,1.09-1.66,1.92-2.19.82-.53,1.79-.79,2.89-.79.81,0,1.56.15,2.25.46.69.31,1.28.74,1.77,1.31.49.57.87,1.23,1.14,1.99.27.76.41,1.6.41,2.51s-.14,1.74-.42,2.51Z" style="fill:#3689b2;"/><path d="m300.71,42.85c-.44,0-.83.15-1.16.46-.33.31-.5.77-.5,1.38v15.4c0,.64.17,1.11.5,1.42.33.31.72.46,1.16.46s.83-.16,1.16-.48c.33-.32.5-.79.5-1.4v-15.4c0-.61-.17-1.07-.5-1.38-.33-.31-.72-.46-1.16-.46Z" style="fill:#3689b2;"/><path d="m300.71,34.63c-.44,0-.83.14-1.16.42-.33.28-.5.71-.5,1.27v1.81c0,.57.17.99.5,1.27.33.28.72.42,1.16.42s.83-.14,1.16-.42c.33-.28.5-.71.5-1.27v-1.81c0-.56-.17-.99-.5-1.27-.33-.28-.72-.42-1.16-.42Z" style="fill:#3689b2;"/><path d="m309.22,34.07c-.44,0-.83.16-1.16.48-.33.32-.5.79-.5,1.4v24.14c0,.61.17,1.08.5,1.4.33.32.72.48,1.16.48s.83-.16,1.16-.48c.33-.32.5-.79.5-1.4v-24.14c0-.61-.17-1.08-.5-1.4-.33-.32-.72-.48-1.16-.48Z" style="fill:#3689b2;"/><path d="m319.76,54.05h7.26c1.03,0,1.9-.1,2.6-.29.7-.2,1.25-.48,1.64-.87.39-.38.64-.87.74-1.46.1-.59.07-1.27-.07-2.03-.25-1.35-.74-2.51-1.49-3.48-.75-.97-1.69-1.73-2.82-2.27-1.13-.54-2.37-.81-3.72-.81-1.69,0-3.22.4-4.57,1.2s-2.42,1.92-3.21,3.35c-.79,1.44-1.18,3.11-1.18,5.03s.42,3.7,1.25,5.12c.83,1.43,1.95,2.52,3.35,3.28,1.4.76,2.96,1.14,4.68,1.14.69,0,1.41-.07,2.16-.2.75-.14,1.5-.34,2.27-.63.76-.28,1.52-.65,2.29-1.09.54-.29.87-.66.98-1.11s.06-.85-.17-1.23-.55-.65-.98-.79c-.43-.15-.92-.06-1.46.26-.59.32-1.17.59-1.75.81-.58.22-1.15.39-1.71.5-.57.11-1.11.17-1.62.17-1.16,0-2.18-.24-3.08-.72-.9-.48-1.6-1.19-2.12-2.12-.37-.67-.6-1.45-.71-2.32.02.02.03.04.04.05.32.33.79.5,1.4.5Zm1.2-7.11c.85-.52,1.82-.77,2.93-.77.83,0,1.58.15,2.25.46.66.31,1.21.75,1.64,1.33.43.58.73,1.26.9,2.05.05.25.04.42-.02.52-.06.1-.16.17-.29.2-.14.04-.32.05-.55.04-.23-.01-.5-.02-.79-.02h-7.26c-.61,0-1.08.17-1.4.5,0,0-.02.02-.03.03.1-.78.31-1.49.63-2.13.48-.95,1.14-1.68,1.99-2.19Z" style="fill:#3689b2;"/></g><g><path d="m3.31,27.9c.44,0,.83-.16,1.16-.48.33-.32.5-.79.5-1.4V1.88c0-.61-.17-1.08-.5-1.4s-.72-.48-1.16-.48-.83.16-1.16.48c-.33.32-.5.79-.5,1.4v24.14c0,.61.17,1.08.5,1.4.33.32.72.48,1.16.48Z" style="fill:#d34a5e;"/><path d="m11.56,25.21c.81.86,1.76,1.52,2.84,1.99,1.08.47,2.25.7,3.5.7s2.41-.2,3.48-.59c.74-.27,1.4-.63,2.01-1.07v.19c0,.62.17,1.08.5,1.4.33.32.72.48,1.16.48s.83-.16,1.16-.48.5-.79.5-1.4v-15.59c0-.61-.17-1.08-.5-1.4-.33-.32-.72-.48-1.16-.48s-.83.16-1.16.48c-.31.3-.47.73-.49,1.28-.62-.52-1.3-.94-2.05-1.26-1.07-.45-2.23-.68-3.48-.68-1.67,0-3.18.41-4.51,1.22-1.34.81-2.4,1.94-3.17,3.37-.77,1.44-1.16,3.09-1.16,4.96,0,1.4.22,2.68.66,3.85s1.07,2.18,1.88,3.04Zm1.18-9.4c.27-.76.65-1.42,1.12-1.97.48-.55,1.06-.98,1.75-1.29.69-.31,1.44-.46,2.25-.46,1.08,0,2.04.26,2.87.77.83.52,1.49,1.24,1.95,2.17.47.93.7,2,.7,3.21v.88c0,.91-.13,1.71-.39,2.4-.26.69-.63,1.26-1.12,1.71-.49.46-1.08.79-1.75,1.01-.68.22-1.42.33-2.23.33s-1.56-.15-2.25-.46c-.69-.31-1.28-.74-1.77-1.31-.49-.57-.87-1.23-1.14-1.99-.27-.76-.41-1.6-.41-2.51s.13-1.74.41-2.51Z" style="fill:#d34a5e;"/><path d="m44.86,10.01c-1.34-.82-2.84-1.23-4.51-1.23s-3.21.41-4.53,1.22c-.34.21-.66.43-.96.68V1.88c0-.61-.17-1.07-.5-1.38-.33-.31-.72-.46-1.16-.46s-.83.15-1.16.46c-.33.31-.5.77-.5,1.38v23.99c0,.61.17,1.08.5,1.4.33.32.72.48,1.16.48s.83-.16,1.16-.48c.3-.29.46-.71.49-1.25.6.45,1.23.86,1.96,1.17,1.08.47,2.27.7,3.57.7,1.23,0,2.38-.23,3.45-.7,1.07-.47,2.01-1.12,2.82-1.97.81-.85,1.44-1.85,1.9-3.02.45-1.17.68-2.45.68-3.85,0-1.87-.39-3.52-1.18-4.96-.79-1.44-1.85-2.57-3.19-3.39Zm.63,10.85c-.28.76-.67,1.42-1.16,1.97-.49.55-1.08.98-1.75,1.29-.68.31-1.41.46-2.19.46s-1.51-.14-2.17-.42c-.66-.28-1.25-.64-1.75-1.09-.5-.44-.9-.93-1.18-1.47-.28-.54-.42-1.07-.42-1.58v-1.73c0-1.2.23-2.27.68-3.21.45-.93,1.09-1.66,1.92-2.19.82-.53,1.79-.79,2.89-.79.81,0,1.56.15,2.25.46.69.31,1.28.74,1.77,1.31.49.57.87,1.23,1.14,1.99.27.76.41,1.6.41,2.51s-.14,1.74-.42,2.51Z" style="fill:#d34a5e;"/><path d="m65.98,10.01c-1.39-.82-2.97-1.23-4.74-1.23s-3.31.41-4.7,1.23c-1.39.82-2.48,1.95-3.28,3.39-.8,1.44-1.2,3.08-1.2,4.92,0,1.11.15,2.14.44,3.1.29.96.7,1.82,1.22,2.58.59.88,1.27,1.6,2.05,2.16s1.68,1.01,2.71,1.38c.59.2,1.09.18,1.49-.04.41-.22.68-.54.83-.96s.12-.83-.07-1.24c-.2-.41-.59-.72-1.18-.94-.44-.15-.85-.32-1.22-.52s-.71-.43-1.01-.7c-.31-.27-.6-.6-.87-1-.34-.52-.61-1.1-.79-1.75-.18-.65-.28-1.34-.28-2.08,0-1.2.25-2.28.74-3.22.49-.95,1.18-1.68,2.06-2.21.88-.53,1.9-.79,3.06-.79s2.17.26,3.06.79c.88.53,1.58,1.26,2.08,2.21.5.95.76,2.02.76,3.22,0,.74-.09,1.42-.28,2.06-.18.64-.45,1.22-.79,1.73-.42.59-.86,1.05-1.33,1.38-.47.33-1.07.62-1.81.87-.59.22-.98.53-1.18.94-.2.41-.22.82-.07,1.24s.42.74.83.96c.41.22.89.23,1.46.04,1.11-.39,2.04-.86,2.8-1.4.76-.54,1.44-1.26,2.03-2.17.54-.79.95-1.65,1.23-2.6.28-.95.42-1.96.42-3.04,0-1.84-.4-3.48-1.2-4.92-.8-1.44-1.89-2.57-3.28-3.39Z" style="fill:#d34a5e;"/><path d="m83.8,12.35c.61.07,1.1-.03,1.46-.31.36-.28.56-.65.63-1.09.06-.44-.04-.85-.31-1.22-.27-.37-.71-.6-1.33-.7-1.35-.17-2.56-.12-3.63.15-1.07.27-2,.71-2.78,1.33-.07.05-.12.12-.19.18-.01-.57-.17-1.02-.49-1.32-.33-.32-.72-.48-1.16-.48s-.83.15-1.16.46c-.33.31-.5.78-.5,1.42v15.26c0,.49.11.89.33,1.2.22.31.5.51.83.61.33.1.66.09,1-.02.33-.11.61-.31.83-.61s.33-.69.33-1.18v-8.14c0-.86.11-1.66.33-2.4s.57-1.37,1.05-1.9c.48-.53,1.11-.91,1.9-1.14.79-.23,1.74-.26,2.87-.09Z" style="fill:#d34a5e;"/><path d="m105.17,26.42v-15.59c0-.61-.17-1.08-.5-1.4-.33-.32-.72-.48-1.16-.48s-.83.16-1.16.48c-.31.3-.47.73-.49,1.28-.62-.52-1.3-.94-2.05-1.26-1.07-.45-2.23-.68-3.48-.68-1.67,0-3.18.41-4.51,1.22-1.34.81-2.4,1.94-3.17,3.37-.77,1.44-1.16,3.09-1.16,4.96,0,1.4.22,2.68.66,3.85s1.07,2.18,1.88,3.04c.81.86,1.76,1.52,2.84,1.99,1.08.47,2.25.7,3.5.7s2.41-.2,3.48-.59c.74-.27,1.4-.63,2.01-1.07v.19c0,.62.17,1.08.5,1.4.33.32.72.48,1.16.48s.83-.16,1.16-.48.5-.79.5-1.4Zm-4.83-3.19c-.49.46-1.08.79-1.75,1.01-.68.22-1.42.33-2.23.33s-1.56-.15-2.25-.46c-.69-.31-1.28-.74-1.77-1.31-.49-.57-.87-1.23-1.14-1.99-.27-.76-.41-1.6-.41-2.51s.13-1.74.41-2.51c.27-.76.65-1.42,1.12-1.97.48-.55,1.06-.98,1.75-1.29.69-.31,1.44-.46,2.25-.46,1.08,0,2.04.26,2.87.77.83.52,1.49,1.24,1.95,2.17.47.93.7,2,.7,3.21v.88c0,.91-.13,1.71-.39,2.4-.26.69-.63,1.26-1.12,1.71Z" style="fill:#d34a5e;"/><path d="m111.92,16.71v9.31c0,.64.17,1.11.5,1.42.33.31.72.46,1.16.46s.83-.16,1.16-.48c.33-.32.5-.79.5-1.4v-13.56h2.62c.61,0,1.08-.17,1.4-.5.32-.33.48-.72.48-1.16s-.16-.83-.48-1.16-.79-.5-1.4-.5h-2.62v-3.32c0-.61-.17-1.08-.5-1.4-.33-.32-.72-.48-1.16-.48s-.83.16-1.16.48c-.33.32-.5.79-.5,1.4v3.32h-2.25c-.61,0-1.08.17-1.4.5-.32.33-.48.72-.48,1.16s.16.83.48,1.16c.32.33.79.5,1.4.5h2.25v4.26Z" style="fill:#d34a5e;"/><path d="m135.91,26.13c.76-.54,1.44-1.26,2.03-2.17.54-.79.95-1.65,1.23-2.6.28-.95.42-1.96.42-3.04,0-1.84-.4-3.48-1.2-4.92-.8-1.44-1.89-2.57-3.28-3.39-1.39-.82-2.97-1.23-4.74-1.23s-3.31.41-4.7,1.23c-1.39.82-2.48,1.95-3.28,3.39-.8,1.44-1.2,3.08-1.2,4.92,0,1.11.15,2.14.44,3.1.29.96.7,1.82,1.22,2.58.59.88,1.27,1.6,2.05,2.16s1.68,1.01,2.71,1.38c.59.2,1.09.18,1.49-.04.41-.22.68-.54.83-.96s.12-.83-.07-1.24c-.2-.41-.59-.72-1.18-.94-.44-.15-.85-.32-1.22-.52s-.71-.43-1.01-.7c-.31-.27-.6-.6-.87-1-.34-.52-.61-1.1-.79-1.75-.18-.65-.28-1.34-.28-2.08,0-1.2.25-2.28.74-3.22.49-.95,1.18-1.68,2.06-2.21.88-.53,1.9-.79,3.06-.79s2.17.26,3.06.79c.88.53,1.58,1.26,2.08,2.21.5.95.76,2.02.76,3.22,0,.74-.09,1.42-.28,2.06-.18.64-.45,1.22-.79,1.73-.42.59-.86,1.05-1.33,1.38-.47.33-1.07.62-1.81.87-.59.22-.98.53-1.18.94-.2.41-.22.82-.07,1.24s.42.74.83.96c.41.22.89.23,1.46.04,1.11-.39,2.04-.86,2.8-1.4Z" style="fill:#d34a5e;"/><path d="m154.71,9.73c-.27-.37-.71-.6-1.33-.7-1.35-.17-2.56-.12-3.63.15-1.07.27-2,.71-2.78,1.33-.07.05-.12.12-.19.18-.01-.57-.17-1.02-.49-1.32-.33-.32-.72-.48-1.16-.48s-.83.15-1.16.46c-.33.31-.5.78-.5,1.42v15.26c0,.49.11.89.33,1.2.22.31.5.51.83.61.33.1.66.09,1-.02.33-.11.61-.31.83-.61s.33-.69.33-1.18v-8.14c0-.86.11-1.66.33-2.4s.57-1.37,1.05-1.9c.48-.53,1.11-.91,1.9-1.14.79-.23,1.74-.26,2.87-.09.61.07,1.1-.03,1.46-.31.36-.28.56-.65.63-1.09.06-.44-.04-.85-.31-1.22Z" style="fill:#d34a5e;"/><path d="m157.87,13.67c.39.83.78,1.66,1.16,2.49.38.82.74,1.6,1.09,2.32.34.72.64,1.34.88,1.86.32.66.63,1.27.92,1.81s.54,1.03.74,1.47.32.85.37,1.23c.05.38-.01.76-.18,1.12-.07.2-.16.4-.26.61-.1.21-.2.42-.29.65-.1.22-.2.45-.29.7-.12.29-.25.58-.39.87-.14.28-.27.57-.41.87-.14.29-.27.59-.41.88-.14.29-.26.58-.39.85-.2.44-.26.85-.18,1.22.07.37.24.67.5.9.26.23.55.37.88.42.33.05.66-.02,1-.2.33-.18.61-.5.83-.94.12-.27.25-.55.39-.83.13-.28.26-.57.39-.85.12-.28.25-.57.37-.85.12-.28.25-.57.37-.87.1-.25.2-.48.31-.7s.21-.45.31-.68c.1-.23.2-.46.29-.68.37-.81.83-1.84,1.4-3.1.56-1.25,1.16-2.57,1.79-3.94s1.2-2.65,1.71-3.83c.15-.32.31-.69.5-1.11.18-.42.38-.86.59-1.33.21-.47.42-.93.63-1.4.21-.47.41-.92.61-1.36.27-.56.31-1.06.13-1.47-.18-.42-.48-.71-.88-.88s-.82-.18-1.25-.04c-.43.15-.77.5-1.01,1.07s-.52,1.17-.81,1.82-.57,1.27-.83,1.86c-.26.59-.49,1.09-.68,1.51-.39.91-.82,1.88-1.29,2.91-.47,1.03-.93,2.05-1.38,3.06,0,.01,0,.02-.02.03-.32-.66-.68-1.41-1.11-2.28-.25-.52-.53-1.13-.87-1.84-.33-.71-.69-1.47-1.07-2.29-.38-.81-.76-1.63-1.14-2.45-.38-.82-.74-1.62-1.09-2.38-.27-.57-.62-.92-1.05-1.05-.43-.13-.84-.11-1.23.07-.39.18-.68.49-.85.9-.17.42-.14.91.11,1.47.34.74.71,1.52,1.11,2.36Z" style="fill:#d34a5e;"/></g></svg>